<svg id="Layer_1" data-name="Layer 1" xmlns="http://www.w3.org/2000/svg" viewBox="0 0 9200.97 2346"><defs><style>.cls-1{fill:#00a99d;}.cls-2{font-size:38.66px;font-family:FranklinGothic-Heavy, Franklin Gothic Heavy;font-weight:800;letter-spacing:-0.05em;}.cls-11,.cls-3{font-size:14px;}.cls-18,.cls-3,.cls-7,.cls-9{font-family:OpenSans-Light, Open Sans;font-weight:300;}.cls-11,.cls-12,.cls-3{letter-spacing:-0.05em;}.cls-4{font-size:20px;}.cls-11,.cls-12,.cls-14,.cls-15,.cls-4,.cls-8{font-family:OpenSans-Bold, Open Sans;font-weight:700;}.cls-18,.cls-4,.cls-7{letter-spacing:-0.05em;}.cls-5{stroke:#000;}.cls-10,.cls-5{stroke-miterlimit:10;}.cls-6{fill:#f2f2f2;}.cls-18,.cls-7{font-size:10px;}.cls-8,.cls-9{font-size:9px;}.cls-14,.cls-17,.cls-8{fill:#fff;}.cls-14,.cls-8{letter-spacing:-0.02em;}.cls-9{letter-spacing:-0.05em;}.cls-10{fill:none;stroke:#f2f2f2;}.cls-12{font-size:7px;}.cls-13{fill:#4650b8;}.cls-14{font-size:11px;}.cls-15{font-size:8px;letter-spacing:-0.05em;}.cls-16{opacity:0.7;}.cls-18{fill:#999;}.cls-19{fill:#333;}</style></defs><title>logo-gerux</title><rect class="cls-1" x="4407.97" y="143" width="130" height="36" rx="2.76"/><text class="cls-2" transform="translate(3780.44 56.15)">gerux</text><text class="cls-3" transform="translate(3779.44 164.15)">Painel</text><text class="cls-4" transform="translate(3970.44 164.15)">Empresa</text><text class="cls-3" transform="translate(4674.44 50.15)">Seja bem vindo, Admin</text><text class="cls-3" transform="translate(3779.44 198.15)">Empresa</text><text class="cls-3" transform="translate(3779.44 235.15)">Fiscalização</text><text class="cls-3" transform="translate(3779.44 269.15)">Endereço</text><path class="cls-5" d="M4612,948H5636" transform="translate(-833.03)"/><rect class="cls-6" x="4551.97" y="143" width="252.78" height="36" rx="2.53"/><text class="cls-7" transform="translate(4588.33 165.25)">Buscar uma empresa</text><text class="cls-8" transform="translate(4441.72 165.15)">Nova Empresa</text><text class="cls-9" transform="translate(3970.44 227.15)">Você encontrou 3 resultados para sua pesquisa:</text><path d="M5407.93,166l-2.45-2.44a.59.59,0,0,0-.42-.17h-.39a5.1,5.1,0,1,0-4,2,5,5,0,0,0,3.14-1.08v.4a.59.59,0,0,0,.17.42l2.45,2.44a.59.59,0,0,0,.83,0l.69-.69A.61.61,0,0,0,5407.93,166Zm-7.29-2.61a3.14,3.14,0,1,1,3.14-3.14A3.13,3.13,0,0,1,5400.64,163.35Z" transform="translate(-833.03)"/><line class="cls-10" x1="3969.97" y1="186" x2="4804.97" y2="186"/><rect class="cls-6" x="3969.97" y="255" width="835" height="94" rx="3.37"/><text class="cls-11" transform="translate(3991.44 281.15)">Br solution</text><text class="cls-9" transform="translate(3991.44 318.15)">Av. Santos Moreira, 122 - Macaé - RJ</text><text class="cls-12" transform="translate(3991.44 305.15)">Endereço:</text><text class="cls-12" transform="translate(4225.44 305.15)">CEP:</text><text class="cls-9" transform="translate(4225.44 318.15)">27943-200</text><path d="M5563.47,301.15l-1.53,1.53a.39.39,0,0,1-.56,0l-3.69-3.68a.42.42,0,0,1,0-.57l1.53-1.53a1.61,1.61,0,0,1,2.26,0l2,2A1.58,1.58,0,0,1,5563.47,301.15Zm-7.09-1.4-8.72,8.71-.7,4a.8.8,0,0,0,.92.92l4-.71,8.72-8.71a.4.4,0,0,0,0-.57l-3.68-3.68a.4.4,0,0,0-.57,0Zm-5.31,8a.45.45,0,0,1,0-.66l5.11-5.11a.46.46,0,0,1,.65,0,.45.45,0,0,1,0,.66l-5.11,5.11a.46.46,0,0,1-.65,0Zm-1.2,2.79h1.59v1.2l-2.14.38-1-1,.37-2.14h1.21Z" transform="translate(-833.03)"/><path d="M5588.84,312.7a1.73,1.73,0,0,0,1.72,1.73h10.37a1.74,1.74,0,0,0,1.73-1.73h0V300.61h-13.82Zm9.79-9.21a.57.57,0,0,1,.57-.58.58.58,0,0,1,.58.58v8.06a.57.57,0,0,1-.58.57.56.56,0,0,1-.57-.57Zm-3.46,0a.58.58,0,1,1,1.15,0v8.06a.58.58,0,0,1-1.15,0Zm-3.45,0a.57.57,0,0,1,.57-.58.58.58,0,0,1,.58.58v8.06a.57.57,0,0,1-.58.57.56.56,0,0,1-.57-.57Zm11.51-6.34h-4.32l-.33-.67a.88.88,0,0,0-.78-.48h-4.11a.84.84,0,0,0-.77.48l-.34.67h-4.32a.58.58,0,0,0-.58.58v1.15a.58.58,0,0,0,.58.58h15a.58.58,0,0,0,.58-.58v-1.15A.58.58,0,0,0,5603.23,297.15Z" transform="translate(-833.03)"/><rect class="cls-6" x="3969.97" y="358" width="835" height="94" rx="3.37"/><text class="cls-11" transform="translate(3991.44 384.15)">Brasdril</text><text class="cls-9" transform="translate(3991.44 421.15)">Av. Santos Moreira, 122 - Macaé - RJ</text><text class="cls-12" transform="translate(3991.44 408.15)">Endereço:</text><text class="cls-12" transform="translate(4225.44 408.15)">CEP:</text><text class="cls-9" transform="translate(4225.44 421.15)">27943-200</text><path d="M5563.47,404.15l-1.53,1.53a.39.39,0,0,1-.56,0l-3.69-3.68a.42.42,0,0,1,0-.57l1.53-1.53a1.61,1.61,0,0,1,2.26,0l2,2A1.58,1.58,0,0,1,5563.47,404.15Zm-7.09-1.4-8.72,8.71-.7,4a.8.8,0,0,0,.92.92l4-.71,8.72-8.71a.4.4,0,0,0,0-.57l-3.68-3.68a.4.4,0,0,0-.57,0Zm-5.31,8a.45.45,0,0,1,0-.66l5.11-5.11a.46.46,0,0,1,.65,0,.45.45,0,0,1,0,.66l-5.11,5.11a.46.46,0,0,1-.65,0Zm-1.2,2.79h1.59v1.2l-2.14.38-1-1,.37-2.14h1.21Z" transform="translate(-833.03)"/><path d="M5588.84,415.7a1.73,1.73,0,0,0,1.72,1.73h10.37a1.74,1.74,0,0,0,1.73-1.73h0V403.61h-13.82Zm9.79-9.21a.57.57,0,0,1,.57-.58.58.58,0,0,1,.58.58v8.06a.57.57,0,0,1-.58.57.56.56,0,0,1-.57-.57Zm-3.46,0a.58.58,0,1,1,1.15,0v8.06a.58.58,0,0,1-1.15,0Zm-3.45,0a.57.57,0,0,1,.57-.58.58.58,0,0,1,.58.58v8.06a.57.57,0,0,1-.58.57.56.56,0,0,1-.57-.57Zm11.51-6.34h-4.32l-.33-.67a.88.88,0,0,0-.78-.48h-4.11a.84.84,0,0,0-.77.48l-.34.67h-4.32a.58.58,0,0,0-.58.58v1.15a.58.58,0,0,0,.58.58h15a.58.58,0,0,0,.58-.58v-1.15A.58.58,0,0,0,5603.23,400.15Z" transform="translate(-833.03)"/><rect class="cls-6" x="3969.97" y="461" width="835" height="94" rx="3.37"/><text class="cls-11" transform="translate(3991.44 487.15)">Brainstorm</text><text class="cls-9" transform="translate(3991.44 524.15)">Av. Santos Moreira, 122 - Macaé - RJ</text><text class="cls-12" transform="translate(3991.44 511.15)">Endereço:</text><text class="cls-12" transform="translate(4225.44 511.15)">CEP:</text><text class="cls-9" transform="translate(4225.44 524.15)">27943-200</text><path d="M5563.47,507.15l-1.53,1.53a.39.39,0,0,1-.56,0l-3.69-3.68a.42.42,0,0,1,0-.57l1.53-1.53a1.61,1.61,0,0,1,2.26,0l2,2A1.58,1.58,0,0,1,5563.47,507.15Zm-7.09-1.4-8.72,8.71-.7,4a.8.8,0,0,0,.92.92l4-.71,8.72-8.71a.4.4,0,0,0,0-.57l-3.68-3.68a.4.4,0,0,0-.57,0Zm-5.31,8a.45.45,0,0,1,0-.66l5.11-5.11a.46.46,0,0,1,.65,0,.45.45,0,0,1,0,.66l-5.11,5.11a.46.46,0,0,1-.65,0Zm-1.2,2.79h1.59v1.2l-2.14.38-1-1,.37-2.14h1.21Z" transform="translate(-833.03)"/><path d="M5588.84,518.7a1.73,1.73,0,0,0,1.72,1.73h10.37a1.74,1.74,0,0,0,1.73-1.73h0V506.61h-13.82Zm9.79-9.21a.57.57,0,0,1,.57-.58.58.58,0,0,1,.58.58v8.06a.57.57,0,0,1-.58.57.56.56,0,0,1-.57-.57Zm-3.46,0a.58.58,0,1,1,1.15,0v8.06a.58.58,0,0,1-1.15,0Zm-3.45,0a.57.57,0,0,1,.57-.58.58.58,0,0,1,.58.58v8.06a.57.57,0,0,1-.58.57.56.56,0,0,1-.57-.57Zm11.51-6.34h-4.32l-.33-.67a.88.88,0,0,0-.78-.48h-4.11a.84.84,0,0,0-.77.48l-.34.67h-4.32a.58.58,0,0,0-.58.58v1.15a.58.58,0,0,0,.58.58h15a.58.58,0,0,0,.58-.58v-1.15A.58.58,0,0,0,5603.23,503.15Z" transform="translate(-833.03)"/><rect class="cls-13" x="5929.97" y="1520" width="245.03" height="180" rx="2.76"/><rect class="cls-13" x="6225.9" y="1520" width="245.03" height="180" rx="2.76"/><rect class="cls-13" x="6519.94" y="1520" width="245.03" height="180" rx="2.76"/><text class="cls-2" transform="translate(5740.44 1322.15)">gerux</text><text class="cls-3" transform="translate(5739.44 1430.15)">Painel</text><text class="cls-4" transform="translate(5930.44 1430.15)">Endereço</text><text class="cls-3" transform="translate(6634.44 1316.15)">Seja bem vindo, Admin</text><text class="cls-3" transform="translate(5739.44 1464.15)">Empresa</text><text class="cls-3" transform="translate(5739.44 1501.15)">Fiscalização</text><text class="cls-3" transform="translate(5739.44 1535.15)">Endereço</text><path class="cls-5" d="M6572,2214H7596" transform="translate(-833.03)"/><rect class="cls-6" x="6511.97" y="1409" width="252.78" height="36" rx="2.53"/><text class="cls-7" transform="translate(6548.33 1431.25)">Buscar uma Estado, cidade oou Bairro</text><text class="cls-14" transform="translate(6290.29 1666.15)">Cadastrar Nova Cidade</text><text class="cls-14" transform="translate(5992.16 1666.15)">Cadastrar Nobo Estado</text><text class="cls-9" transform="translate(5930.44 1493.15)">Selecione uma das opções abaixo:</text><path d="M7367.93,1432l-2.45-2.44a.59.59,0,0,0-.42-.17h-.39a5.1,5.1,0,1,0-4,2,5,5,0,0,0,3.14-1.08v.4a.59.59,0,0,0,.17.42l2.45,2.44a.59.59,0,0,0,.83,0l.69-.69A.61.61,0,0,0,7367.93,1432Zm-7.29-2.61a3.14,3.14,0,1,1,3.14-3.14A3.13,3.13,0,0,1,7360.64,1429.35Z" transform="translate(-833.03)"/><rect class="cls-6" x="6369.97" y="1409" width="129.78" height="36" rx="2.53"/><line class="cls-10" x1="5929.97" y1="1452" x2="6764.97" y2="1452"/><rect class="cls-1" x="123.97" y="920" width="130" height="36" rx="2.76"/><text class="cls-2" transform="translate(79.01 718.15)">gerux</text><rect class="cls-6" y="786" width="252.78" height="36" rx="2.53"/><text class="cls-7" transform="translate(18.36 808.25)">Digite seu usuário</text><text class="cls-15" transform="translate(0.36 777.25)">Usuário:</text><rect class="cls-6" x="1.16" y="858" width="252.78" height="36" rx="2.53"/><text class="cls-7" transform="translate(19.52 880.25)">Digite seu usuário</text><text class="cls-15" transform="translate(1.52 849.25)">Digite sua senha:</text><text class="cls-8" transform="translate(157.72 942.15)">Nova Empresa</text><rect class="cls-1" x="2440.97" y="143" width="130" height="36" rx="2.76"/><text class="cls-2" transform="translate(1813.44 56.15)">gerux</text><text class="cls-3" transform="translate(1812.44 164.15)">Painel</text><text class="cls-4" transform="translate(2003.44 164.15)">Empresa</text><text class="cls-3" transform="translate(2707.44 50.15)">Seja bem vindo, Admin</text><text class="cls-3" transform="translate(1812.44 198.15)">Empresa</text><text class="cls-3" transform="translate(1812.44 235.15)">Fiscalização</text><text class="cls-3" transform="translate(1812.44 269.15)">Endereço</text><path class="cls-5" d="M2645,948H3669" transform="translate(-833.03)"/><rect class="cls-6" x="2584.97" y="143" width="252.78" height="36" rx="2.53"/><text class="cls-7" transform="translate(2621.33 165.25)">Buscar uma empresa</text><text class="cls-8" transform="translate(2474.72 165.15)">Nova Empresa</text><text class="cls-9" transform="translate(2003.44 227.15)">Você encontrou 3 resultados para sua pesquisa:</text><path d="M3440.93,166l-2.45-2.44a.59.59,0,0,0-.42-.17h-.39a5.1,5.1,0,1,0-4,2,5,5,0,0,0,3.14-1.08v.4a.59.59,0,0,0,.17.42l2.45,2.44a.59.59,0,0,0,.83,0l.69-.69A.61.61,0,0,0,3440.93,166Zm-7.29-2.61a3.14,3.14,0,1,1,3.14-3.14A3.13,3.13,0,0,1,3433.64,163.35Z" transform="translate(-833.03)"/><line class="cls-10" x1="2002.97" y1="186" x2="2837.97" y2="186"/><rect class="cls-6" x="2002.97" y="255" width="835" height="94" rx="3.37"/><text class="cls-11" transform="translate(2024.44 281.15)">Br solution</text><text class="cls-9" transform="translate(2144.44 318.15)">Av. Santos Moreira, 122 - Macaé - RJ</text><text class="cls-12" transform="translate(2144.44 305.15)">Endereço:</text><text class="cls-12" transform="translate(2378.44 305.15)">CEP:</text><text class="cls-9" transform="translate(2378.44 318.15)">27943-200</text><path d="M3596.47,301.15l-1.53,1.53a.39.39,0,0,1-.56,0l-3.69-3.68a.42.42,0,0,1,0-.57l1.53-1.53a1.61,1.61,0,0,1,2.26,0l2,2A1.58,1.58,0,0,1,3596.47,301.15Zm-7.09-1.4-8.72,8.71-.7,4a.8.8,0,0,0,.92.92l4-.71,8.72-8.71a.4.4,0,0,0,0-.57l-3.68-3.68a.4.4,0,0,0-.57,0Zm-5.31,8a.45.45,0,0,1,0-.66l5.11-5.11a.46.46,0,0,1,.65,0,.45.45,0,0,1,0,.66l-5.11,5.11a.46.46,0,0,1-.65,0Zm-1.2,2.79h1.59v1.2l-2.14.38-1-1,.37-2.14h1.21Z" transform="translate(-833.03)"/><path d="M3621.84,312.7a1.73,1.73,0,0,0,1.72,1.73h10.37a1.74,1.74,0,0,0,1.73-1.73h0V300.61h-13.82Zm9.79-9.21a.57.57,0,0,1,.57-.58.58.58,0,0,1,.58.58v8.06a.57.57,0,0,1-.58.57.56.56,0,0,1-.57-.57Zm-3.46,0a.58.58,0,1,1,1.15,0v8.06a.58.58,0,0,1-1.15,0Zm-3.45,0a.57.57,0,0,1,.57-.58.58.58,0,0,1,.58.58v8.06a.57.57,0,0,1-.58.57.56.56,0,0,1-.57-.57Zm11.51-6.34h-4.32l-.33-.67a.88.88,0,0,0-.78-.48h-4.11a.84.84,0,0,0-.77.48l-.34.67h-4.32a.58.58,0,0,0-.58.58v1.15a.58.58,0,0,0,.58.58h15a.58.58,0,0,0,.58-.58v-1.15A.58.58,0,0,0,3636.23,297.15Z" transform="translate(-833.03)"/><rect class="cls-6" x="2002.97" y="358" width="835" height="94" rx="3.37"/><text class="cls-11" transform="translate(2024.44 384.15)">Brasdril</text><text class="cls-9" transform="translate(2144.44 421.15)">Av. Santos Moreira, 122 - Macaé - RJ</text><text class="cls-12" transform="translate(2144.44 408.15)">Endereço:</text><text class="cls-12" transform="translate(2378.44 408.15)">CEP:</text><text class="cls-9" transform="translate(2378.44 421.15)">27943-200</text><path d="M3596.47,404.15l-1.53,1.53a.39.39,0,0,1-.56,0l-3.69-3.68a.42.42,0,0,1,0-.57l1.53-1.53a1.61,1.61,0,0,1,2.26,0l2,2A1.58,1.58,0,0,1,3596.47,404.15Zm-7.09-1.4-8.72,8.71-.7,4a.8.8,0,0,0,.92.92l4-.71,8.72-8.71a.4.4,0,0,0,0-.57l-3.68-3.68a.4.4,0,0,0-.57,0Zm-5.31,8a.45.45,0,0,1,0-.66l5.11-5.11a.46.46,0,0,1,.65,0,.45.45,0,0,1,0,.66l-5.11,5.11a.46.46,0,0,1-.65,0Zm-1.2,2.79h1.59v1.2l-2.14.38-1-1,.37-2.14h1.21Z" transform="translate(-833.03)"/><path d="M3621.84,415.7a1.73,1.73,0,0,0,1.72,1.73h10.37a1.74,1.74,0,0,0,1.73-1.73h0V403.61h-13.82Zm9.79-9.21a.57.57,0,0,1,.57-.58.58.58,0,0,1,.58.58v8.06a.57.57,0,0,1-.58.57.56.56,0,0,1-.57-.57Zm-3.46,0a.58.58,0,1,1,1.15,0v8.06a.58.58,0,0,1-1.15,0Zm-3.45,0a.57.57,0,0,1,.57-.58.58.58,0,0,1,.58.58v8.06a.57.57,0,0,1-.58.57.56.56,0,0,1-.57-.57Zm11.51-6.34h-4.32l-.33-.67a.88.88,0,0,0-.78-.48h-4.11a.84.84,0,0,0-.77.48l-.34.67h-4.32a.58.58,0,0,0-.58.58v1.15a.58.58,0,0,0,.58.58h15a.58.58,0,0,0,.58-.58v-1.15A.58.58,0,0,0,3636.23,400.15Z" transform="translate(-833.03)"/><rect class="cls-6" x="2002.97" y="461" width="835" height="94" rx="3.37"/><text class="cls-11" transform="translate(2024.44 487.15)">Brainstorm</text><text class="cls-9" transform="translate(2144.44 524.15)">Av. Santos Moreira, 122 - Macaé - RJ</text><text class="cls-12" transform="translate(2144.44 511.15)">Endereço:</text><text class="cls-9" transform="translate(2024.44 318.15)">14.000.000/0001-06</text><text class="cls-12" transform="translate(2024.44 305.15)">CNPJ</text><text class="cls-9" transform="translate(2024.44 421.15)">14.000.000/0001-06</text><text class="cls-12" transform="translate(2024.44 408.15)">CNPJ</text><text class="cls-9" transform="translate(2024.44 524.15)">14.000.000/0001-06</text><text class="cls-12" transform="translate(2024.44 511.15)">CNPJ</text><text class="cls-12" transform="translate(2378.44 511.15)">CEP:</text><text class="cls-9" transform="translate(2378.44 524.15)">27943-200</text><path d="M3596.47,507.15l-1.53,1.53a.39.39,0,0,1-.56,0l-3.69-3.68a.42.42,0,0,1,0-.57l1.53-1.53a1.61,1.61,0,0,1,2.26,0l2,2A1.58,1.58,0,0,1,3596.47,507.15Zm-7.09-1.4-8.72,8.71-.7,4a.8.8,0,0,0,.92.92l4-.71,8.72-8.71a.4.4,0,0,0,0-.57l-3.68-3.68a.4.4,0,0,0-.57,0Zm-5.31,8a.45.45,0,0,1,0-.66l5.11-5.11a.46.46,0,0,1,.65,0,.45.45,0,0,1,0,.66l-5.11,5.11a.46.46,0,0,1-.65,0Zm-1.2,2.79h1.59v1.2l-2.14.38-1-1,.37-2.14h1.21Z" transform="translate(-833.03)"/><path d="M3621.84,518.7a1.73,1.73,0,0,0,1.72,1.73h10.37a1.74,1.74,0,0,0,1.73-1.73h0V506.61h-13.82Zm9.79-9.21a.57.57,0,0,1,.57-.58.58.58,0,0,1,.58.58v8.06a.57.57,0,0,1-.58.57.56.56,0,0,1-.57-.57Zm-3.46,0a.58.58,0,1,1,1.15,0v8.06a.58.58,0,0,1-1.15,0Zm-3.45,0a.57.57,0,0,1,.57-.58.58.58,0,0,1,.58.58v8.06a.57.57,0,0,1-.58.57.56.56,0,0,1-.57-.57Zm11.51-6.34h-4.32l-.33-.67a.88.88,0,0,0-.78-.48h-4.11a.84.84,0,0,0-.77.48l-.34.67h-4.32a.58.58,0,0,0-.58.58v1.15a.58.58,0,0,0,.58.58h15a.58.58,0,0,0,.58-.58v-1.15A.58.58,0,0,0,3636.23,503.15Z" transform="translate(-833.03)"/><rect class="cls-16" x="3330.97" width="1920" height="1080"/><rect class="cls-17" x="3922.97" y="101.5" width="736" height="491" rx="5.39"/><text class="cls-4" transform="translate(3975.55 154.65)">Cadastrar nova empresa</text><line class="cls-5" x1="3975.97" y1="181.5" x2="4605.97" y2="181.5"/><rect class="cls-6" x="3972.73" y="231.5" width="252.78" height="36" rx="2.53"/><text class="cls-18" transform="translate(3988.09 253.75)">00.000.000/0001-00</text><text class="cls-12" transform="translate(3972.19 225.65)">CNPJ:</text><rect class="cls-6" x="3971.73" y="298.5" width="634.24" height="36" rx="2.53"/><text class="cls-18" transform="translate(3987.09 320.75)">Digite o nome da empresa</text><text class="cls-12" transform="translate(3971.19 292.65)">Nome:</text><rect class="cls-6" x="3971.73" y="368.5" width="634.24" height="36" rx="2.53"/><text class="cls-18" transform="translate(3987.09 390.75)">Digite o logradouro da empresa</text><text class="cls-12" transform="translate(3971.19 362.65)">Logradouro:</text><rect class="cls-6" x="3972.98" y="434.5" width="178" height="36" rx="2.53"/><rect x="3973.89" y="499.5" width="215.08" height="36" rx="2.53"/><text class="cls-18" transform="translate(3988.34 456.75)">Selecione o estado</text><text class="cls-12" transform="translate(3972.44 428.65)">Estado:</text><rect class="cls-6" x="4202.24" y="434.5" width="178" height="36" rx="2.53"/><text class="cls-18" transform="translate(4217.61 456.75)">Selecione a cidade</text><text class="cls-12" transform="translate(4201.71 428.65)">Cidade:</text><rect class="cls-6" x="4427.89" y="434.5" width="178" height="36" rx="2.53"/><text class="cls-18" transform="translate(4443.25 456.75)">Selecione o Bairro</text><text class="cls-12" transform="translate(4427.36 428.65)">Bairro:</text><polygon class="cls-19" points="4133.97 451.5 4141.97 451.5 4137.97 456.5 4133.97 451.5"/><polygon class="cls-19" points="4360.97 451.5 4368.97 451.5 4364.97 456.5 4360.97 451.5"/><polygon class="cls-19" points="4587.97 451.5 4595.97 451.5 4591.97 456.5 4587.97 451.5"/><rect class="cls-1" x="4201.97" y="499.5" width="404" height="36" rx="2.76"/><text class="cls-8" transform="translate(4392.62 521.65)">Salvar</text><text class="cls-8" transform="translate(4062.04 521.65)">Cancelar</text><rect class="cls-16" x="5290.97" y="1266" width="1920" height="1080"/><path class="cls-17" d="M7210.6,1600.6H7197v-16.8a2.39,2.39,0,0,0-2.4-2.4h-14.4a2.39,2.39,0,0,0-2.4,2.4v7.2h-6.4v-8a1.6,1.6,0,0,0-1.6-1.6h-1.6a1.6,1.6,0,0,0-1.6,1.6v8h-6.4v-8a1.6,1.6,0,0,0-1.6-1.6H7157a1.6,1.6,0,0,0-1.6,1.6v8h-4a2.39,2.39,0,0,0-2.4,2.4v36a3.2,3.2,0,0,0,3.2,3.2h57.6a3.2,3.2,0,0,0,3.2-3.2V1603A2.4,2.4,0,0,0,7210.6,1600.6Zm-48.8,21.2a1.2,1.2,0,0,1-1.2,1.2h-4a1.2,1.2,0,0,1-1.2-1.2v-4a1.2,1.2,0,0,1,1.2-1.2h4a1.2,1.2,0,0,1,1.2,1.2Zm0-9.6a1.2,1.2,0,0,1-1.2,1.2h-4a1.2,1.2,0,0,1-1.2-1.2v-4a1.2,1.2,0,0,1,1.2-1.2h4a1.2,1.2,0,0,1,1.2,1.2Zm0-9.6a1.2,1.2,0,0,1-1.2,1.2h-4a1.2,1.2,0,0,1-1.2-1.2v-4a1.2,1.2,0,0,1,1.2-1.2h4a1.2,1.2,0,0,1,1.2,1.2Zm12.8,19.2a1.2,1.2,0,0,1-1.2,1.2h-4a1.2,1.2,0,0,1-1.2-1.2v-4a1.2,1.2,0,0,1,1.2-1.2h4a1.2,1.2,0,0,1,1.2,1.2Zm0-9.6a1.2,1.2,0,0,1-1.2,1.2h-4a1.2,1.2,0,0,1-1.2-1.2v-4a1.2,1.2,0,0,1,1.2-1.2h4a1.2,1.2,0,0,1,1.2,1.2Zm0-9.6a1.2,1.2,0,0,1-1.2,1.2h-4a1.2,1.2,0,0,1-1.2-1.2v-4a1.2,1.2,0,0,1,1.2-1.2h4a1.2,1.2,0,0,1,1.2,1.2Zm16,9.6a1.2,1.2,0,0,1-1.2,1.2h-4a1.2,1.2,0,0,1-1.2-1.2v-4a1.2,1.2,0,0,1,1.2-1.2h4a1.2,1.2,0,0,1,1.2,1.2Zm0-9.6a1.2,1.2,0,0,1-1.2,1.2h-4a1.2,1.2,0,0,1-1.2-1.2v-4a1.2,1.2,0,0,1,1.2-1.2h4a1.2,1.2,0,0,1,1.2,1.2Zm0-9.6a1.2,1.2,0,0,1-1.2,1.2h-4a1.2,1.2,0,0,1-1.2-1.2v-4a1.2,1.2,0,0,1,1.2-1.2h4a1.2,1.2,0,0,1,1.2,1.2Zm16,28.8a1.2,1.2,0,0,1-1.2,1.2h-4a1.2,1.2,0,0,1-1.2-1.2v-4a1.2,1.2,0,0,1,1.2-1.2h4a1.2,1.2,0,0,1,1.2,1.2Zm0-9.6a1.2,1.2,0,0,1-1.2,1.2h-4a1.2,1.2,0,0,1-1.2-1.2v-4a1.2,1.2,0,0,1,1.2-1.2h4a1.2,1.2,0,0,1,1.2,1.2Z" transform="translate(-833.03)"/><text class="cls-14" transform="translate(6585.83 1666.15)">Cadastrar Novo Bairro</text><path class="cls-17" d="M6886,1573a15.75,15.75,0,0,0-15.75,15.75c0,7,10.29,19.85,14.24,24.5a2,2,0,0,0,3,0c3.95-4.65,14.24-17.47,14.24-24.5A15.75,15.75,0,0,0,6886,1573Zm-33.48,27a4,4,0,0,0-2.52,3.72V1635a2,2,0,0,0,2.74,1.85L6870,1629v-29.14a38.26,38.26,0,0,1-2.66-5.8Zm33.48,18a6,6,0,0,1-4.56-2.12c-2.46-2.9-5.07-6.2-7.44-9.59V1629l24,8v-30.75c-2.37,3.39-5,6.69-7.44,9.59A6,6,0,0,1,6886,1618Zm33.26-24.81L6902,1601v36l17.49-7a4,4,0,0,0,2.51-3.72V1595a2,2,0,0,0-2.74-1.85Z" transform="translate(-833.03)"/><text class="cls-7" transform="translate(6383.33 1431.25)">Selecione uma opção</text><polygon class="cls-19" points="6484.97 1425 6492.97 1425 6488.97 1430 6484.97 1425"/><path class="cls-17" d="M7475,1580a15.75,15.75,0,0,0-15.75,15.75c0,7,10.29,19.85,14.24,24.5a2,2,0,0,0,3,0c3.95-4.65,14.24-17.47,14.24-24.5A15.75,15.75,0,0,0,7475,1580Z" transform="translate(-833.03)"/><rect class="cls-13" x="5939.97" y="254" width="245.03" height="180" rx="2.76"/><rect class="cls-13" x="6235.9" y="254" width="245.03" height="180" rx="2.76"/><rect class="cls-13" x="6529.94" y="254" width="245.03" height="180" rx="2.76"/><text class="cls-2" transform="translate(5750.44 56.15)">gerux</text><text class="cls-3" transform="translate(5749.44 164.15)">Painel</text><text class="cls-4" transform="translate(5940.44 164.15)">Endereço</text><text class="cls-3" transform="translate(6644.44 50.15)">Seja bem vindo, Admin</text><text class="cls-3" transform="translate(5749.44 198.15)">Empresa</text><text class="cls-3" transform="translate(5749.44 235.15)">Fiscalização</text><text class="cls-3" transform="translate(5749.44 269.15)">Endereço</text><path class="cls-5" d="M6582,948H7606" transform="translate(-833.03)"/><rect class="cls-6" x="6521.97" y="143" width="252.78" height="36" rx="2.53"/><text class="cls-7" transform="translate(6558.33 165.25)">Buscar uma Estado, cidade oou Bairro</text><text class="cls-14" transform="translate(6300.29 400.15)">Cadastrar Nova Cidade</text><text class="cls-14" transform="translate(6002.16 400.15)">Cadastrar Nobo Estado</text><text class="cls-9" transform="translate(5940.44 227.15)">Selecione uma das opções abaixo:</text><path d="M7377.93,166l-2.45-2.44a.59.59,0,0,0-.42-.17h-.39a5.1,5.1,0,1,0-4,2,5,5,0,0,0,3.14-1.08v.4a.59.59,0,0,0,.17.42l2.45,2.44a.59.59,0,0,0,.83,0l.69-.69A.61.61,0,0,0,7377.93,166Zm-7.29-2.61a3.14,3.14,0,1,1,3.14-3.14A3.13,3.13,0,0,1,7370.64,163.35Z" transform="translate(-833.03)"/><rect class="cls-6" x="6379.97" y="143" width="129.78" height="36" rx="2.53"/><line class="cls-10" x1="5939.97" y1="186" x2="6774.97" y2="186"/><path class="cls-17" d="M7220.6,334.6H7207V317.8a2.39,2.39,0,0,0-2.4-2.4h-14.4a2.39,2.39,0,0,0-2.4,2.4V325h-6.4v-8a1.6,1.6,0,0,0-1.6-1.6h-1.6a1.6,1.6,0,0,0-1.6,1.6v8h-6.4v-8a1.6,1.6,0,0,0-1.6-1.6H7167a1.6,1.6,0,0,0-1.6,1.6v8h-4a2.39,2.39,0,0,0-2.4,2.4v36a3.2,3.2,0,0,0,3.2,3.2h57.6a3.2,3.2,0,0,0,3.2-3.2V337A2.4,2.4,0,0,0,7220.6,334.6Zm-48.8,21.2a1.2,1.2,0,0,1-1.2,1.2h-4a1.2,1.2,0,0,1-1.2-1.2v-4a1.2,1.2,0,0,1,1.2-1.2h4a1.2,1.2,0,0,1,1.2,1.2Zm0-9.6a1.2,1.2,0,0,1-1.2,1.2h-4a1.2,1.2,0,0,1-1.2-1.2v-4a1.2,1.2,0,0,1,1.2-1.2h4a1.2,1.2,0,0,1,1.2,1.2Zm0-9.6a1.2,1.2,0,0,1-1.2,1.2h-4a1.2,1.2,0,0,1-1.2-1.2v-4a1.2,1.2,0,0,1,1.2-1.2h4a1.2,1.2,0,0,1,1.2,1.2Zm12.8,19.2a1.2,1.2,0,0,1-1.2,1.2h-4a1.2,1.2,0,0,1-1.2-1.2v-4a1.2,1.2,0,0,1,1.2-1.2h4a1.2,1.2,0,0,1,1.2,1.2Zm0-9.6a1.2,1.2,0,0,1-1.2,1.2h-4a1.2,1.2,0,0,1-1.2-1.2v-4a1.2,1.2,0,0,1,1.2-1.2h4a1.2,1.2,0,0,1,1.2,1.2Zm0-9.6a1.2,1.2,0,0,1-1.2,1.2h-4a1.2,1.2,0,0,1-1.2-1.2v-4a1.2,1.2,0,0,1,1.2-1.2h4a1.2,1.2,0,0,1,1.2,1.2Zm16,9.6a1.2,1.2,0,0,1-1.2,1.2h-4a1.2,1.2,0,0,1-1.2-1.2v-4a1.2,1.2,0,0,1,1.2-1.2h4a1.2,1.2,0,0,1,1.2,1.2Zm0-9.6a1.2,1.2,0,0,1-1.2,1.2h-4a1.2,1.2,0,0,1-1.2-1.2v-4a1.2,1.2,0,0,1,1.2-1.2h4a1.2,1.2,0,0,1,1.2,1.2Zm0-9.6a1.2,1.2,0,0,1-1.2,1.2h-4a1.2,1.2,0,0,1-1.2-1.2v-4a1.2,1.2,0,0,1,1.2-1.2h4a1.2,1.2,0,0,1,1.2,1.2Zm16,28.8a1.2,1.2,0,0,1-1.2,1.2h-4a1.2,1.2,0,0,1-1.2-1.2v-4a1.2,1.2,0,0,1,1.2-1.2h4a1.2,1.2,0,0,1,1.2,1.2Zm0-9.6a1.2,1.2,0,0,1-1.2,1.2h-4a1.2,1.2,0,0,1-1.2-1.2v-4a1.2,1.2,0,0,1,1.2-1.2h4a1.2,1.2,0,0,1,1.2,1.2Z" transform="translate(-833.03)"/><text class="cls-14" transform="translate(6595.83 400.15)">Cadastrar Novo Bairro</text><path class="cls-17" d="M6896,307a15.75,15.75,0,0,0-15.75,15.75c0,7,10.29,19.85,14.24,24.5a2,2,0,0,0,3,0c3.95-4.65,14.24-17.47,14.24-24.5A15.75,15.75,0,0,0,6896,307Zm-33.48,27a4,4,0,0,0-2.52,3.72V369a2,2,0,0,0,2.74,1.85L6880,363V333.86a38.26,38.26,0,0,1-2.66-5.8ZM6896,352a6,6,0,0,1-4.56-2.12c-2.46-2.9-5.07-6.2-7.44-9.59V363l24,8V340.25c-2.37,3.39-5,6.69-7.44,9.59A6,6,0,0,1,6896,352Zm33.26-24.81L6912,335v36l17.49-7a4,4,0,0,0,2.51-3.72V329a2,2,0,0,0-2.74-1.85Z" transform="translate(-833.03)"/><text class="cls-7" transform="translate(6393.33 165.25)">Selecione uma opção</text><polygon class="cls-19" points="6494.97 159 6502.97 159 6498.97 164 6494.97 159"/><path class="cls-17" d="M7485,314a15.75,15.75,0,0,0-15.75,15.75c0,7,10.29,19.85,14.24,24.5a2,2,0,0,0,3,0c3.95-4.65,14.24-17.47,14.24-24.5A15.75,15.75,0,0,0,7485,314Z" transform="translate(-833.03)"/><rect class="cls-17" x="5882.97" y="1367.5" width="736" height="282.5" rx="5.39"/><text class="cls-4" transform="translate(5935.55 1420.65)">Cadastrar Novo Bairro</text><line class="cls-5" x1="5935.97" y1="1447.5" x2="6565.97" y2="1447.5"/><rect class="cls-6" x="5932.73" y="1497.5" width="145.25" height="36" rx="2.53"/><text class="cls-18" transform="translate(5948.09 1519.75)">Selecione o Estado</text><text class="cls-12" transform="translate(5932.19 1491.65)">Estado:</text><rect class="cls-6" x="6259.21" y="1498" width="308.25" height="36" rx="2.53"/><text class="cls-18" transform="translate(6274.58 1520.25)">Digite o nome do bairro</text><text class="cls-12" transform="translate(6258.68 1492.15)">Nome</text><rect x="5933.89" y="1553.5" width="215.08" height="36" rx="2.53"/><rect class="cls-1" x="6161.97" y="1553.5" width="405" height="36" rx="2.76"/><text class="cls-8" transform="translate(6352.62 1575.65)">Salvar</text><text class="cls-8" transform="translate(6022.04 1575.65)">Cancelar</text><rect class="cls-13" x="7919.97" y="254" width="245.03" height="180" rx="2.76"/><rect class="cls-13" x="8215.9" y="254" width="245.03" height="180" rx="2.76"/><rect class="cls-13" x="8509.94" y="254" width="245.03" height="180" rx="2.76"/><text class="cls-2" transform="translate(7730.44 56.15)">gerux</text><text class="cls-3" transform="translate(7729.44 164.15)">Painel</text><text class="cls-4" transform="translate(7920.44 164.15)">Endereço</text><text class="cls-3" transform="translate(8624.44 50.15)">Seja bem vindo, Admin</text><text class="cls-3" transform="translate(7729.44 198.15)">Empresa</text><text class="cls-3" transform="translate(7729.44 235.15)">Fiscalização</text><text class="cls-3" transform="translate(7729.44 269.15)">Endereço</text><path class="cls-5" d="M8562,948H9586" transform="translate(-833.03)"/><rect class="cls-6" x="8501.97" y="143" width="252.78" height="36" rx="2.53"/><text class="cls-7" transform="translate(8538.33 165.25)">Buscar uma Estado, cidade oou Bairro</text><text class="cls-14" transform="translate(8280.29 400.15)">Cadastrar Nova Cidade</text><text class="cls-14" transform="translate(7982.16 400.15)">Cadastrar Nobo Estado</text><text class="cls-9" transform="translate(7920.44 227.15)">Selecione uma das opções abaixo:</text><path d="M9357.93,166l-2.45-2.44a.59.59,0,0,0-.42-.17h-.39a5.1,5.1,0,1,0-4,2,5,5,0,0,0,3.14-1.08v.4a.59.59,0,0,0,.17.42l2.45,2.44a.59.59,0,0,0,.83,0l.69-.69A.61.61,0,0,0,9357.93,166Zm-7.29-2.61a3.14,3.14,0,1,1,3.14-3.14A3.13,3.13,0,0,1,9350.64,163.35Z" transform="translate(-833.03)"/><rect class="cls-6" x="8359.97" y="143" width="129.78" height="36" rx="2.53"/><line class="cls-10" x1="7919.97" y1="186" x2="8754.97" y2="186"/><rect class="cls-16" x="7280.97" width="1920" height="1080"/><path class="cls-17" d="M9200.6,334.6H9187V317.8a2.39,2.39,0,0,0-2.4-2.4h-14.4a2.39,2.39,0,0,0-2.4,2.4V325h-6.4v-8a1.6,1.6,0,0,0-1.6-1.6h-1.6a1.6,1.6,0,0,0-1.6,1.6v8h-6.4v-8a1.6,1.6,0,0,0-1.6-1.6H9147a1.6,1.6,0,0,0-1.6,1.6v8h-4a2.39,2.39,0,0,0-2.4,2.4v36a3.2,3.2,0,0,0,3.2,3.2h57.6a3.2,3.2,0,0,0,3.2-3.2V337A2.4,2.4,0,0,0,9200.6,334.6Zm-48.8,21.2a1.2,1.2,0,0,1-1.2,1.2h-4a1.2,1.2,0,0,1-1.2-1.2v-4a1.2,1.2,0,0,1,1.2-1.2h4a1.2,1.2,0,0,1,1.2,1.2Zm0-9.6a1.2,1.2,0,0,1-1.2,1.2h-4a1.2,1.2,0,0,1-1.2-1.2v-4a1.2,1.2,0,0,1,1.2-1.2h4a1.2,1.2,0,0,1,1.2,1.2Zm0-9.6a1.2,1.2,0,0,1-1.2,1.2h-4a1.2,1.2,0,0,1-1.2-1.2v-4a1.2,1.2,0,0,1,1.2-1.2h4a1.2,1.2,0,0,1,1.2,1.2Zm12.8,19.2a1.2,1.2,0,0,1-1.2,1.2h-4a1.2,1.2,0,0,1-1.2-1.2v-4a1.2,1.2,0,0,1,1.2-1.2h4a1.2,1.2,0,0,1,1.2,1.2Zm0-9.6a1.2,1.2,0,0,1-1.2,1.2h-4a1.2,1.2,0,0,1-1.2-1.2v-4a1.2,1.2,0,0,1,1.2-1.2h4a1.2,1.2,0,0,1,1.2,1.2Zm0-9.6a1.2,1.2,0,0,1-1.2,1.2h-4a1.2,1.2,0,0,1-1.2-1.2v-4a1.2,1.2,0,0,1,1.2-1.2h4a1.2,1.2,0,0,1,1.2,1.2Zm16,9.6a1.2,1.2,0,0,1-1.2,1.2h-4a1.2,1.2,0,0,1-1.2-1.2v-4a1.2,1.2,0,0,1,1.2-1.2h4a1.2,1.2,0,0,1,1.2,1.2Zm0-9.6a1.2,1.2,0,0,1-1.2,1.2h-4a1.2,1.2,0,0,1-1.2-1.2v-4a1.2,1.2,0,0,1,1.2-1.2h4a1.2,1.2,0,0,1,1.2,1.2Zm0-9.6a1.2,1.2,0,0,1-1.2,1.2h-4a1.2,1.2,0,0,1-1.2-1.2v-4a1.2,1.2,0,0,1,1.2-1.2h4a1.2,1.2,0,0,1,1.2,1.2Zm16,28.8a1.2,1.2,0,0,1-1.2,1.2h-4a1.2,1.2,0,0,1-1.2-1.2v-4a1.2,1.2,0,0,1,1.2-1.2h4a1.2,1.2,0,0,1,1.2,1.2Zm0-9.6a1.2,1.2,0,0,1-1.2,1.2h-4a1.2,1.2,0,0,1-1.2-1.2v-4a1.2,1.2,0,0,1,1.2-1.2h4a1.2,1.2,0,0,1,1.2,1.2Z" transform="translate(-833.03)"/><text class="cls-14" transform="translate(8575.83 400.15)">Cadastrar Novo Bairro</text><path class="cls-17" d="M8876,307a15.75,15.75,0,0,0-15.75,15.75c0,7,10.29,19.85,14.24,24.5a2,2,0,0,0,3,0c3.95-4.65,14.24-17.47,14.24-24.5A15.75,15.75,0,0,0,8876,307Zm-33.48,27a4,4,0,0,0-2.52,3.72V369a2,2,0,0,0,2.74,1.85L8860,363V333.86a38.26,38.26,0,0,1-2.66-5.8ZM8876,352a6,6,0,0,1-4.56-2.12c-2.46-2.9-5.07-6.2-7.44-9.59V363l24,8V340.25c-2.37,3.39-5,6.69-7.44,9.59A6,6,0,0,1,8876,352Zm33.26-24.81L8892,335v36l17.49-7a4,4,0,0,0,2.51-3.72V329a2,2,0,0,0-2.74-1.85Z" transform="translate(-833.03)"/><text class="cls-7" transform="translate(8373.33 165.25)">Selecione uma opção</text><polygon class="cls-19" points="8474.97 159 8482.97 159 8478.97 164 8474.97 159"/><path class="cls-17" d="M9465,314a15.75,15.75,0,0,0-15.75,15.75c0,7,10.29,19.85,14.24,24.5a2,2,0,0,0,3,0c3.95-4.65,14.24-17.47,14.24-24.5A15.75,15.75,0,0,0,9465,314Z" transform="translate(-833.03)"/><rect class="cls-17" x="7872.97" y="101.5" width="736" height="282.5" rx="5.39"/><text class="cls-4" transform="translate(7925.55 154.65)">Cadastrar Novo estado</text><line class="cls-5" x1="7925.97" y1="181.5" x2="8555.97" y2="181.5"/><rect class="cls-6" x="7922.73" y="231.5" width="308.25" height="36" rx="2.53"/><text class="cls-18" transform="translate(7938.09 253.75)">Digite o nome</text><text class="cls-12" transform="translate(7922.19 225.65)">Nome:</text><rect class="cls-6" x="8249.21" y="232" width="308.25" height="36" rx="2.53"/><text class="cls-18" transform="translate(8264.58 254.25)">Digite o UF</text><text class="cls-12" transform="translate(8248.68 226.15)">UF:</text><rect x="7923.89" y="287.5" width="215.08" height="36" rx="2.53"/><rect class="cls-1" x="8151.97" y="287.5" width="405" height="36" rx="2.76"/><text class="cls-8" transform="translate(8342.62 309.65)">Salvar</text><text class="cls-8" transform="translate(8012.04 309.65)">Cancelar</text><polygon class="cls-19" points="6056.97 1515 6064.97 1515 6060.97 1520 6056.97 1515"/><rect class="cls-6" x="6095.73" y="1497.5" width="145.25" height="36" rx="2.53"/><text class="cls-18" transform="translate(6111.09 1519.75)">Selecione o Cidade</text><text class="cls-12" transform="translate(6095.19 1491.65)">Cidade:</text><polygon class="cls-19" points="6219.97 1515 6227.97 1515 6223.97 1520 6219.97 1515"/><text class="cls-2" transform="translate(1813.44 1322.15)">gerux</text><text class="cls-3" transform="translate(1812.44 1430.15)">Painel</text><text class="cls-4" transform="translate(2003.44 1430.15)">Fiscalização</text><text class="cls-3" transform="translate(2707.44 1316.15)">Seja bem vindo, Admin</text><text class="cls-3" transform="translate(1812.44 1464.15)">Empresa</text><text class="cls-3" transform="translate(1812.44 1501.15)">Fiscalização</text><text class="cls-3" transform="translate(1812.44 1535.15)">Endereço</text><path class="cls-5" d="M2645,2214H3669" transform="translate(-833.03)"/><rect class="cls-6" x="2002.97" y="1570" width="835" height="36" rx="2.53"/><text class="cls-7" transform="translate(2039.33 1592.25)">Digite a empresa</text><path d="M2858.93,1593l-2.45-2.44a.59.59,0,0,0-.42-.17h-.39a5.1,5.1,0,1,0-4,2,5,5,0,0,0,3.14-1.08v.4a.59.59,0,0,0,.17.42l2.45,2.44a.59.59,0,0,0,.83,0l.69-.69A.61.61,0,0,0,2858.93,1593Zm-7.29-2.61a3.14,3.14,0,1,1,3.14-3.14A3.13,3.13,0,0,1,2851.64,1590.35Z" transform="translate(-833.03)"/><rect class="cls-6" x="2350.97" y="1512" width="157" height="36" rx="2.53"/><line class="cls-10" x1="2002.97" y1="1452" x2="2837.97" y2="1452"/><text class="cls-7" transform="translate(2364.33 1534.25)">Selecione um estado</text><rect class="cls-6" x="2174.97" y="1512" width="160" height="36" rx="2.53"/><text class="cls-7" transform="translate(2188.33 1534.25)">Data de final</text><rect class="cls-6" x="2003.97" y="1512" width="154" height="36" rx="2.53"/><text class="cls-7" transform="translate(2017.33 1534.25)">Data de inicio</text><rect class="cls-13" x="7919.97" y="1520" width="245.03" height="180" rx="2.76"/><rect class="cls-13" x="8215.9" y="1520" width="245.03" height="180" rx="2.76"/><rect class="cls-13" x="8509.94" y="1520" width="245.03" height="180" rx="2.76"/><text class="cls-2" transform="translate(7730.44 1322.15)">gerux</text><text class="cls-3" transform="translate(7729.44 1430.15)">Painel</text><text class="cls-4" transform="translate(7920.44 1430.15)">Endereço</text><text class="cls-3" transform="translate(8624.44 1316.15)">Seja bem vindo, Admin</text><text class="cls-3" transform="translate(7729.44 1464.15)">Empresa</text><text class="cls-3" transform="translate(7729.44 1501.15)">Fiscalização</text><text class="cls-3" transform="translate(7729.44 1535.15)">Endereço</text><path class="cls-5" d="M8562,2214H9586" transform="translate(-833.03)"/><rect class="cls-6" x="8501.97" y="1409" width="252.78" height="36" rx="2.53"/><text class="cls-7" transform="translate(8538.33 1431.25)">Buscar uma Estado, cidade oou Bairro</text><text class="cls-14" transform="translate(8280.29 1666.15)">Cadastrar Nova Cidade</text><text class="cls-14" transform="translate(7982.16 1666.15)">Cadastrar Nobo Estado</text><text class="cls-9" transform="translate(7920.44 1493.15)">Selecione uma das opções abaixo:</text><path d="M9357.93,1432l-2.45-2.44a.59.59,0,0,0-.42-.17h-.39a5.1,5.1,0,1,0-4,2,5,5,0,0,0,3.14-1.08v.4a.59.59,0,0,0,.17.42l2.45,2.44a.59.59,0,0,0,.83,0l.69-.69A.61.61,0,0,0,9357.93,1432Zm-7.29-2.61a3.14,3.14,0,1,1,3.14-3.14A3.13,3.13,0,0,1,9350.64,1429.35Z" transform="translate(-833.03)"/><rect class="cls-6" x="8359.97" y="1409" width="129.78" height="36" rx="2.53"/><line class="cls-10" x1="7919.97" y1="1452" x2="8754.97" y2="1452"/><rect class="cls-16" x="7280.97" y="1266" width="1920" height="1080"/><path class="cls-17" d="M9200.6,1600.6H9187v-16.8a2.39,2.39,0,0,0-2.4-2.4h-14.4a2.39,2.39,0,0,0-2.4,2.4v7.2h-6.4v-8a1.6,1.6,0,0,0-1.6-1.6h-1.6a1.6,1.6,0,0,0-1.6,1.6v8h-6.4v-8a1.6,1.6,0,0,0-1.6-1.6H9147a1.6,1.6,0,0,0-1.6,1.6v8h-4a2.39,2.39,0,0,0-2.4,2.4v36a3.2,3.2,0,0,0,3.2,3.2h57.6a3.2,3.2,0,0,0,3.2-3.2V1603A2.4,2.4,0,0,0,9200.6,1600.6Zm-48.8,21.2a1.2,1.2,0,0,1-1.2,1.2h-4a1.2,1.2,0,0,1-1.2-1.2v-4a1.2,1.2,0,0,1,1.2-1.2h4a1.2,1.2,0,0,1,1.2,1.2Zm0-9.6a1.2,1.2,0,0,1-1.2,1.2h-4a1.2,1.2,0,0,1-1.2-1.2v-4a1.2,1.2,0,0,1,1.2-1.2h4a1.2,1.2,0,0,1,1.2,1.2Zm0-9.6a1.2,1.2,0,0,1-1.2,1.2h-4a1.2,1.2,0,0,1-1.2-1.2v-4a1.2,1.2,0,0,1,1.2-1.2h4a1.2,1.2,0,0,1,1.2,1.2Zm12.8,19.2a1.2,1.2,0,0,1-1.2,1.2h-4a1.2,1.2,0,0,1-1.2-1.2v-4a1.2,1.2,0,0,1,1.2-1.2h4a1.2,1.2,0,0,1,1.2,1.2Zm0-9.6a1.2,1.2,0,0,1-1.2,1.2h-4a1.2,1.2,0,0,1-1.2-1.2v-4a1.2,1.2,0,0,1,1.2-1.2h4a1.2,1.2,0,0,1,1.2,1.2Zm0-9.6a1.2,1.2,0,0,1-1.2,1.2h-4a1.2,1.2,0,0,1-1.2-1.2v-4a1.2,1.2,0,0,1,1.2-1.2h4a1.2,1.2,0,0,1,1.2,1.2Zm16,9.6a1.2,1.2,0,0,1-1.2,1.2h-4a1.2,1.2,0,0,1-1.2-1.2v-4a1.2,1.2,0,0,1,1.2-1.2h4a1.2,1.2,0,0,1,1.2,1.2Zm0-9.6a1.2,1.2,0,0,1-1.2,1.2h-4a1.2,1.2,0,0,1-1.2-1.2v-4a1.2,1.2,0,0,1,1.2-1.2h4a1.2,1.2,0,0,1,1.2,1.2Zm0-9.6a1.2,1.2,0,0,1-1.2,1.2h-4a1.2,1.2,0,0,1-1.2-1.2v-4a1.2,1.2,0,0,1,1.2-1.2h4a1.2,1.2,0,0,1,1.2,1.2Zm16,28.8a1.2,1.2,0,0,1-1.2,1.2h-4a1.2,1.2,0,0,1-1.2-1.2v-4a1.2,1.2,0,0,1,1.2-1.2h4a1.2,1.2,0,0,1,1.2,1.2Zm0-9.6a1.2,1.2,0,0,1-1.2,1.2h-4a1.2,1.2,0,0,1-1.2-1.2v-4a1.2,1.2,0,0,1,1.2-1.2h4a1.2,1.2,0,0,1,1.2,1.2Z" transform="translate(-833.03)"/><text class="cls-14" transform="translate(8575.83 1666.15)">Cadastrar Novo Bairro</text><path class="cls-17" d="M8876,1573a15.75,15.75,0,0,0-15.75,15.75c0,7,10.29,19.85,14.24,24.5a2,2,0,0,0,3,0c3.95-4.65,14.24-17.47,14.24-24.5A15.75,15.75,0,0,0,8876,1573Zm-33.48,27a4,4,0,0,0-2.52,3.72V1635a2,2,0,0,0,2.74,1.85L8860,1629v-29.14a38.26,38.26,0,0,1-2.66-5.8Zm33.48,18a6,6,0,0,1-4.56-2.12c-2.46-2.9-5.07-6.2-7.44-9.59V1629l24,8v-30.75c-2.37,3.39-5,6.69-7.44,9.59A6,6,0,0,1,8876,1618Zm33.26-24.81L8892,1601v36l17.49-7a4,4,0,0,0,2.51-3.72V1595a2,2,0,0,0-2.74-1.85Z" transform="translate(-833.03)"/><text class="cls-7" transform="translate(8373.33 1431.25)">Selecione uma opção</text><polygon class="cls-19" points="8474.97 1425 8482.97 1425 8478.97 1430 8474.97 1425"/><path class="cls-17" d="M9465,1580a15.75,15.75,0,0,0-15.75,15.75c0,7,10.29,19.85,14.24,24.5a2,2,0,0,0,3,0c3.95-4.65,14.24-17.47,14.24-24.5A15.75,15.75,0,0,0,9465,1580Z" transform="translate(-833.03)"/><rect class="cls-17" x="7872.97" y="1367.5" width="736" height="282.5" rx="5.39"/><text class="cls-4" transform="translate(7925.55 1420.65)">Cadastrar Nova Cidade</text><line class="cls-5" x1="7925.97" y1="1447.5" x2="8555.97" y2="1447.5"/><rect class="cls-6" x="7922.73" y="1497.5" width="308.25" height="36" rx="2.53"/><text class="cls-18" transform="translate(7938.09 1519.75)">Selecione o Estado</text><text class="cls-12" transform="translate(7922.19 1491.65)">Estado:</text><rect class="cls-6" x="8249.21" y="1498" width="308.25" height="36" rx="2.53"/><text class="cls-18" transform="translate(8264.58 1520.25)">Digite o nome da cidade</text><text class="cls-12" transform="translate(8248.68 1492.15)">Nome</text><rect x="7923.89" y="1553.5" width="215.08" height="36" rx="2.53"/><rect class="cls-1" x="8151.97" y="1553.5" width="405" height="36" rx="2.76"/><text class="cls-8" transform="translate(8342.62 1575.65)">Salvar</text><text class="cls-8" transform="translate(8012.04 1575.65)">Cancelar</text><polygon class="cls-19" points="8213.97 1515 8221.97 1515 8217.97 1520 8213.97 1515"/><text class="cls-9" transform="translate(2003.44 1485.15)">Preencha os filtros para fazer a sua busca ou cadastre uma nova fiscalização.</text><text class="cls-9" transform="translate(2003.44 1663.15)">Resultados para sua pesquisa:</text><polygon class="cls-19" points="2491.97 1529 2499.97 1529 2495.97 1534 2491.97 1529"/><rect class="cls-6" x="2524.97" y="1512" width="147" height="36" rx="2.53"/><text class="cls-7" transform="translate(2538.33 1534.25)">Selecione uma cidade</text><polygon class="cls-19" points="2658.97 1529 2666.97 1529 2662.97 1534 2658.97 1529"/><rect class="cls-6" x="2685.97" y="1512" width="147.78" height="36" rx="2.53"/><text class="cls-7" transform="translate(2717.33 1534.25)">Selecione um bairro</text><polygon class="cls-19" points="2816.97 1529 2824.97 1529 2820.97 1534 2816.97 1529"/><rect class="cls-1" x="2680.97" y="1403" width="157" height="36" rx="2.76"/><text class="cls-8" transform="translate(2703.55 1425.15)">Registrar nova fiscalização</text><rect class="cls-6" x="2002.97" y="1682" width="835" height="94" rx="3.37"/><text class="cls-11" transform="translate(2024.44 1708.15)">Company name</text><text class="cls-9" transform="translate(2144.44 1745.15)">Av. Santos Moreira, 122 - Macaé - RJ</text><text class="cls-12" transform="translate(2144.44 1732.15)">Endereço:</text><text class="cls-12" transform="translate(2338.44 1732.15)">CEP:</text><text class="cls-9" transform="translate(2338.44 1745.15)">27943-200</text><text class="cls-12" transform="translate(2431.44 1732.15)">Data da fiscalização:</text><text class="cls-9" transform="translate(2431.44 1745.15)">27943-200</text><path d="M3596.47,1728.15l-1.53,1.53a.39.39,0,0,1-.56,0l-3.69-3.68a.42.42,0,0,1,0-.57l1.53-1.53a1.61,1.61,0,0,1,2.26,0l2,2A1.58,1.58,0,0,1,3596.47,1728.15Zm-7.09-1.4-8.72,8.71-.7,4a.8.8,0,0,0,.92.92l4-.71,8.72-8.71a.4.4,0,0,0,0-.57l-3.68-3.68a.4.4,0,0,0-.57,0Zm-5.31,8a.45.45,0,0,1,0-.66l5.11-5.11a.46.46,0,0,1,.65,0,.45.45,0,0,1,0,.66l-5.11,5.11a.46.46,0,0,1-.65,0Zm-1.2,2.79h1.59v1.2l-2.14.38-1-1,.37-2.14h1.21Z" transform="translate(-833.03)"/><path d="M3621.84,1739.7a1.73,1.73,0,0,0,1.72,1.73h10.37a1.74,1.74,0,0,0,1.73-1.73h0v-12.09h-13.82Zm9.79-9.21a.57.57,0,0,1,.57-.58.58.58,0,0,1,.58.58v8.06a.57.57,0,0,1-.58.57.56.56,0,0,1-.57-.57Zm-3.46,0a.58.58,0,1,1,1.15,0v8.06a.58.58,0,0,1-1.15,0Zm-3.45,0a.57.57,0,0,1,.57-.58.58.58,0,0,1,.58.58v8.06a.57.57,0,0,1-.58.57.56.56,0,0,1-.57-.57Zm11.51-6.34h-4.32l-.33-.67a.88.88,0,0,0-.78-.48h-4.11a.84.84,0,0,0-.77.48l-.34.67h-4.32a.58.58,0,0,0-.58.58v1.15a.58.58,0,0,0,.58.58h15a.58.58,0,0,0,.58-.58v-1.15A.58.58,0,0,0,3636.23,1724.15Z" transform="translate(-833.03)"/><text class="cls-9" transform="translate(2024.44 1745.15)">14.000.000/0001-06</text><text class="cls-12" transform="translate(2024.44 1732.15)">CNPJ</text><text class="cls-2" transform="translate(3780.44 1322.15)">gerux</text><text class="cls-3" transform="translate(3779.44 1430.15)">Painel</text><text class="cls-4" transform="translate(3970.44 1430.15)">Fiscalização</text><text class="cls-3" transform="translate(4674.44 1316.15)">Seja bem vindo, Admin</text><text class="cls-3" transform="translate(3779.44 1464.15)">Empresa</text><text class="cls-3" transform="translate(3779.44 1501.15)">Fiscalização</text><text class="cls-3" transform="translate(3779.44 1535.15)">Endereço</text><path class="cls-5" d="M4612,2214H5636" transform="translate(-833.03)"/><rect class="cls-6" x="3969.97" y="1570" width="835" height="36" rx="2.53"/><text class="cls-7" transform="translate(4006.33 1592.25)">Digite a empresa</text><path d="M4825.93,1593l-2.45-2.44a.59.59,0,0,0-.42-.17h-.39a5.1,5.1,0,1,0-4,2,5,5,0,0,0,3.14-1.08v.4a.59.59,0,0,0,.17.42l2.45,2.44a.59.59,0,0,0,.83,0l.69-.69A.61.61,0,0,0,4825.93,1593Zm-7.29-2.61a3.14,3.14,0,1,1,3.14-3.14A3.13,3.13,0,0,1,4818.64,1590.35Z" transform="translate(-833.03)"/><rect class="cls-6" x="4317.97" y="1512" width="157" height="36" rx="2.53"/><line class="cls-10" x1="3969.97" y1="1452" x2="4804.97" y2="1452"/><text class="cls-7" transform="translate(4331.33 1534.25)">Selecione um estado</text><rect class="cls-6" x="4141.97" y="1512" width="160" height="36" rx="2.53"/><text class="cls-7" transform="translate(4155.33 1534.25)">Data de final</text><rect class="cls-6" x="3970.97" y="1512" width="154" height="36" rx="2.53"/><text class="cls-7" transform="translate(3984.33 1534.25)">Data de inicio</text><text class="cls-9" transform="translate(3970.44 1485.15)">Preencha os filtros para fazer a sua busca ou cadastre uma nova fiscalização.</text><text class="cls-9" transform="translate(3970.44 1663.15)">Resultados para sua pesquisa:</text><polygon class="cls-19" points="4458.97 1529 4466.97 1529 4462.97 1534 4458.97 1529"/><rect class="cls-6" x="4491.97" y="1512" width="147" height="36" rx="2.53"/><text class="cls-7" transform="translate(4505.33 1534.25)">Selecione uma cidade</text><polygon class="cls-19" points="4625.97 1529 4633.97 1529 4629.97 1534 4625.97 1529"/><rect class="cls-6" x="4652.97" y="1512" width="147.78" height="36" rx="2.53"/><text class="cls-7" transform="translate(4684.33 1534.25)">Selecione um bairro</text><polygon class="cls-19" points="4783.97 1529 4791.97 1529 4787.97 1534 4783.97 1529"/><rect class="cls-1" x="4647.97" y="1403" width="157" height="36" rx="2.76"/><text class="cls-8" transform="translate(4670.55 1425.15)">Registrar nova fiscalização</text><rect class="cls-6" x="3969.97" y="1682" width="835" height="94" rx="3.37"/><text class="cls-11" transform="translate(3991.44 1708.15)">Company name</text><text class="cls-9" transform="translate(4111.44 1745.15)">Av. Santos Moreira, 122 - Macaé - RJ</text><text class="cls-12" transform="translate(4111.44 1732.15)">Endereço:</text><text class="cls-12" transform="translate(4305.44 1732.15)">CEP:</text><text class="cls-9" transform="translate(4305.44 1745.15)">27943-200</text><text class="cls-12" transform="translate(4398.44 1732.15)">Data da fiscalização:</text><text class="cls-9" transform="translate(4398.44 1745.15)">27943-200</text><path d="M5563.47,1728.15l-1.53,1.53a.39.39,0,0,1-.56,0l-3.69-3.68a.42.42,0,0,1,0-.57l1.53-1.53a1.61,1.61,0,0,1,2.26,0l2,2A1.58,1.58,0,0,1,5563.47,1728.15Zm-7.09-1.4-8.72,8.71-.7,4a.8.8,0,0,0,.92.92l4-.71,8.72-8.71a.4.4,0,0,0,0-.57l-3.68-3.68a.4.4,0,0,0-.57,0Zm-5.31,8a.45.45,0,0,1,0-.66l5.11-5.11a.46.46,0,0,1,.65,0,.45.45,0,0,1,0,.66l-5.11,5.11a.46.46,0,0,1-.65,0Zm-1.2,2.79h1.59v1.2l-2.14.38-1-1,.37-2.14h1.21Z" transform="translate(-833.03)"/><path d="M5588.84,1739.7a1.73,1.73,0,0,0,1.72,1.73h10.37a1.74,1.74,0,0,0,1.73-1.73h0v-12.09h-13.82Zm9.79-9.21a.57.57,0,0,1,.57-.58.58.58,0,0,1,.58.58v8.06a.57.57,0,0,1-.58.57.56.56,0,0,1-.57-.57Zm-3.46,0a.58.58,0,1,1,1.15,0v8.06a.58.58,0,0,1-1.15,0Zm-3.45,0a.57.57,0,0,1,.57-.58.58.58,0,0,1,.58.58v8.06a.57.57,0,0,1-.58.57.56.56,0,0,1-.57-.57Zm11.51-6.34h-4.32l-.33-.67a.88.88,0,0,0-.78-.48h-4.11a.84.84,0,0,0-.77.48l-.34.67h-4.32a.58.58,0,0,0-.58.58v1.15a.58.58,0,0,0,.58.58h15a.58.58,0,0,0,.58-.58v-1.15A.58.58,0,0,0,5603.23,1724.15Z" transform="translate(-833.03)"/><text class="cls-9" transform="translate(3991.44 1745.15)">14.000.000/0001-06</text><text class="cls-12" transform="translate(3991.44 1732.15)">CNPJ</text><rect class="cls-16" x="1363.97" y="1266" width="1920" height="1080"/><rect class="cls-17" x="1955.97" y="1349.5" width="736" height="491" rx="5.39"/><text class="cls-4" transform="translate(2008.55 1402.65)">Registrar nova fiscalização</text><line class="cls-5" x1="2008.97" y1="1429.5" x2="2638.97" y2="1429.5"/><rect class="cls-6" x="2005.73" y="1479.5" width="252.78" height="36" rx="2.53"/><text class="cls-18" transform="translate(2021.09 1501.75)">00.000.000/0001-00</text><text class="cls-12" transform="translate(2005.19 1473.65)">CNPJ:</text><rect class="cls-6" x="2278.42" y="1480" width="252.78" height="36" rx="2.53"/><text class="cls-18" transform="translate(2293.78 1502.25)">00-00-2018</text><text class="cls-12" transform="translate(2277.88 1474.15)">Data:</text><rect class="cls-6" x="2004.73" y="1546.5" width="634.24" height="36" rx="2.53"/><text class="cls-18" transform="translate(2020.09 1568.75)">Digite o nome da empresa</text><text class="cls-12" transform="translate(2004.19 1540.65)">Empresa:</text><rect class="cls-6" x="2004.73" y="1616.5" width="634.24" height="36" rx="2.53"/><text class="cls-18" transform="translate(2020.09 1638.75)">Digite o logradouro da empresa</text><text class="cls-12" transform="translate(2004.19 1610.65)">Logradouro:</text><rect class="cls-6" x="2005.98" y="1682.5" width="178" height="36" rx="2.53"/><rect x="2006.89" y="1747.5" width="215.08" height="36" rx="2.53"/><text class="cls-18" transform="translate(2021.34 1704.75)">Selecione o estado</text><text class="cls-12" transform="translate(2005.44 1676.65)">Estado:</text><rect class="cls-6" x="2235.24" y="1682.5" width="178" height="36" rx="2.53"/><text class="cls-18" transform="translate(2250.61 1704.75)">Selecione a cidade</text><text class="cls-12" transform="translate(2234.71 1676.65)">Cidade:</text><rect class="cls-6" x="2460.89" y="1682.5" width="178" height="36" rx="2.53"/><text class="cls-18" transform="translate(2476.25 1704.75)">Selecione o Bairro</text><text class="cls-12" transform="translate(2460.36 1676.65)">Bairro:</text><polygon class="cls-19" points="2166.97 1699.5 2174.97 1699.5 2170.97 1704.5 2166.97 1699.5"/><polygon class="cls-19" points="2393.97 1699.5 2401.97 1699.5 2397.97 1704.5 2393.97 1699.5"/><polygon class="cls-19" points="2620.97 1699.5 2628.97 1699.5 2624.97 1704.5 2620.97 1699.5"/><rect class="cls-1" x="2234.97" y="1747.5" width="404" height="36" rx="2.76"/><text class="cls-8" transform="translate(2425.62 1769.65)">Salvar</text><text class="cls-8" transform="translate(2095.04 1769.65)">Cancelar</text></svg>